<svg width="880" height="515" viewBox="0 0 880 515" fill="none" xmlns="http://www.w3.org/2000/svg">
  <defs>
    <!-- Background Gradients -->
    <linearGradient id="card-bg-1" x1="0%" y1="0%" x2="100%" y2="100%">
      <stop offset="0%" stop-color="#0e1726" stop-opacity="0.9" />
      <stop offset="100%" stop-color="#080c16" stop-opacity="0.95" />
    </linearGradient>
    <linearGradient id="card-bg-2" x1="0%" y1="0%" x2="100%" y2="100%">
      <stop offset="0%" stop-color="#140f28" stop-opacity="0.9" />
      <stop offset="100%" stop-color="#090718" stop-opacity="0.95" />
    </linearGradient>
    <linearGradient id="card-bg-3" x1="0%" y1="0%" x2="100%" y2="100%">
      <stop offset="0%" stop-color="#0b1b1b" stop-opacity="0.9" />
      <stop offset="100%" stop-color="#061214" stop-opacity="0.95" />
    </linearGradient>
    <linearGradient id="card-bg-4" x1="0%" y1="0%" x2="100%" y2="100%">
      <stop offset="0%" stop-color="#1c160a" stop-opacity="0.9" />
      <stop offset="100%" stop-color="#100d06" stop-opacity="0.95" />
    </linearGradient>
    <linearGradient id="card-bg-5" x1="0%" y1="0%" x2="100%" y2="100%">
      <stop offset="0%" stop-color="#1e0f18" stop-opacity="0.9" />
      <stop offset="100%" stop-color="#12070e" stop-opacity="0.95" />
    </linearGradient>
    <linearGradient id="card-bg-6" x1="0%" y1="0%" x2="100%" y2="100%">
      <stop offset="0%" stop-color="#0d1829" stop-opacity="0.9" />
      <stop offset="100%" stop-color="#070e1c" stop-opacity="0.95" />
    </linearGradient>

    <!-- Border Glow Gradients -->
    <linearGradient id="border-1" x1="0%" y1="0%" x2="100%" y2="100%">
      <stop offset="0%" stop-color="#00e5ff" stop-opacity="0.6" />
      <stop offset="50%" stop-color="#3b82f6" stop-opacity="0.2" />
      <stop offset="100%" stop-color="#1e293b" stop-opacity="0.4" />
    </linearGradient>
    <linearGradient id="border-2" x1="0%" y1="0%" x2="100%" y2="100%">
      <stop offset="0%" stop-color="#c084fc" stop-opacity="0.6" />
      <stop offset="50%" stop-color="#8b5cf6" stop-opacity="0.2" />
      <stop offset="100%" stop-color="#1e293b" stop-opacity="0.4" />
    </linearGradient>
    <linearGradient id="border-3" x1="0%" y1="0%" x2="100%" y2="100%">
      <stop offset="0%" stop-color="#10b981" stop-opacity="0.6" />
      <stop offset="50%" stop-color="#06b6d4" stop-opacity="0.2" />
      <stop offset="100%" stop-color="#1e293b" stop-opacity="0.4" />
    </linearGradient>
    <linearGradient id="border-4" x1="0%" y1="0%" x2="100%" y2="100%">
      <stop offset="0%" stop-color="#fbbf24" stop-opacity="0.6" />
      <stop offset="50%" stop-color="#f59e0b" stop-opacity="0.2" />
      <stop offset="100%" stop-color="#1e293b" stop-opacity="0.4" />
    </linearGradient>
    <linearGradient id="border-5" x1="0%" y1="0%" x2="100%" y2="100%">
      <stop offset="0%" stop-color="#fb7185" stop-opacity="0.6" />
      <stop offset="50%" stop-color="#f43f5e" stop-opacity="0.2" />
      <stop offset="100%" stop-color="#1e293b" stop-opacity="0.4" />
    </linearGradient>
    <linearGradient id="border-6" x1="0%" y1="0%" x2="100%" y2="100%">
      <stop offset="0%" stop-color="#38bdf8" stop-opacity="0.6" />
      <stop offset="50%" stop-color="#6366f1" stop-opacity="0.2" />
      <stop offset="100%" stop-color="#1e293b" stop-opacity="0.4" />
    </linearGradient>

    <!-- Icon Badge Gradients -->
    <linearGradient id="icon-grad-1" x1="0%" y1="0%" x2="100%" y2="100%">
      <stop offset="0%" stop-color="#00e5ff" stop-opacity="0.25" />
      <stop offset="100%" stop-color="#3b82f6" stop-opacity="0.1" />
    </linearGradient>
    <linearGradient id="icon-grad-2" x1="0%" y1="0%" x2="100%" y2="100%">
      <stop offset="0%" stop-color="#c084fc" stop-opacity="0.25" />
      <stop offset="100%" stop-color="#8b5cf6" stop-opacity="0.1" />
    </linearGradient>
    <linearGradient id="icon-grad-3" x1="0%" y1="0%" x2="100%" y2="100%">
      <stop offset="0%" stop-color="#10b981" stop-opacity="0.25" />
      <stop offset="100%" stop-color="#06b6d4" stop-opacity="0.1" />
    </linearGradient>
    <linearGradient id="icon-grad-4" x1="0%" y1="0%" x2="100%" y2="100%">
      <stop offset="0%" stop-color="#fbbf24" stop-opacity="0.25" />
      <stop offset="100%" stop-color="#f59e0b" stop-opacity="0.1" />
    </linearGradient>
    <linearGradient id="icon-grad-5" x1="0%" y1="0%" x2="100%" y2="100%">
      <stop offset="0%" stop-color="#fb7185" stop-opacity="0.25" />
      <stop offset="100%" stop-color="#f43f5e" stop-opacity="0.1" />
    </linearGradient>
    <linearGradient id="icon-grad-6" x1="0%" y1="0%" x2="100%" y2="100%">
      <stop offset="0%" stop-color="#38bdf8" stop-opacity="0.25" />
      <stop offset="100%" stop-color="#6366f1" stop-opacity="0.1" />
    </linearGradient>
  </defs>

  <style>
    .card-title { font-family: -apple-system, BlinkMacSystemFont, 'Segoe UI', Roboto, Helvetica, Arial, sans-serif; font-size: 14px; font-weight: 700; letter-spacing: 0.2px; }
    .tag-text { font-family: -apple-system, BlinkMacSystemFont, 'Segoe UI', Roboto, Helvetica, Arial, sans-serif; font-size: 11px; font-weight: 500; }
  </style>

  <!-- ==================== CARD 1: Machine Learning & Deep Learning ==================== -->
  <g transform="translate(10, 10)">
    <rect width="425" height="155" rx="14" fill="url(#card-bg-1)" stroke="url(#border-1)" stroke-width="1.2" />
    
    <!-- Icon Box -->
    <rect x="14" y="14" width="30" height="30" rx="8" fill="url(#icon-grad-1)" stroke="#00e5ff" stroke-opacity="0.4" stroke-width="1" />
    <!-- Neural Network / Brain Icon -->
    <path d="M24 29v-3m10 3v-3M22 23c-1.66 0-3-1.34-3-3 0-1.3.84-2.4 2-2.82V17c0-2.21 1.79-4 4-4s4 1.79 4 4v.18c1.16.42 2 1.52 2 2.82 0 1.66-1.34 3-3 3M24 19h10m-6-3v6" stroke="#00e5ff" stroke-width="1.4" stroke-linecap="round" stroke-linejoin="round" />

    <!-- Title -->
    <text x="54" y="34" class="card-title" fill="#ffffff">Machine Learning &amp; Deep Learning</text>
    <line x1="14" y1="52" x2="411" y2="52" stroke="#00e5ff" stroke-opacity="0.15" stroke-width="1" />

    <!-- Tags Row 1 -->
    <g transform="translate(14, 62)">
      <rect width="98" height="23" rx="6" fill="#132034" stroke="#00e5ff" stroke-opacity="0.3" stroke-width="1" />
      <text x="49" y="15.5" class="tag-text" fill="#7dd3fc" text-anchor="middle">Neural Networks</text>

      <rect x="105" width="88" height="23" rx="6" fill="#132034" stroke="#00e5ff" stroke-opacity="0.3" stroke-width="1" />
      <text x="149" y="15.5" class="tag-text" fill="#7dd3fc" text-anchor="middle">Transformers</text>

      <rect x="200" width="66" height="23" rx="6" fill="#132034" stroke="#00e5ff" stroke-opacity="0.3" stroke-width="1" />
      <text x="233" y="15.5" class="tag-text" fill="#7dd3fc" text-anchor="middle">Attention</text>

      <rect x="273" width="124" height="23" rx="6" fill="#132034" stroke="#00e5ff" stroke-opacity="0.3" stroke-width="1" />
      <text x="335" y="15.5" class="tag-text" fill="#7dd3fc" text-anchor="middle">Self-Supervised Learning</text>
    </g>

    <!-- Tags Row 2 -->
    <g transform="translate(14, 91)">
      <rect width="138" height="23" rx="6" fill="#132034" stroke="#00e5ff" stroke-opacity="0.3" stroke-width="1" />
      <text x="69" y="15.5" class="tag-text" fill="#7dd3fc" text-anchor="middle">Representation Learning</text>

      <rect x="145" width="138" height="23" rx="6" fill="#132034" stroke="#00e5ff" stroke-opacity="0.3" stroke-width="1" />
      <text x="214" y="15.5" class="tag-text" fill="#7dd3fc" text-anchor="middle">Reinforcement Learning</text>

      <rect x="290" width="107" height="23" rx="6" fill="#132034" stroke="#00e5ff" stroke-opacity="0.3" stroke-width="1" />
      <text x="343.5" y="15.5" class="tag-text" fill="#7dd3fc" text-anchor="middle">Optimization</text>
    </g>

    <!-- Tags Row 3 -->
    <g transform="translate(14, 120)">
      <rect width="78" height="23" rx="6" fill="#132034" stroke="#00e5ff" stroke-opacity="0.3" stroke-width="1" />
      <text x="39" y="15.5" class="tag-text" fill="#7dd3fc" text-anchor="middle">Embeddings</text>

      <rect x="85" width="105" height="23" rx="6" fill="#132034" stroke="#00e5ff" stroke-opacity="0.3" stroke-width="1" />
      <text x="137.5" y="15.5" class="tag-text" fill="#7dd3fc" text-anchor="middle">Semantic Search</text>

      <rect x="197" width="104" height="23" rx="6" fill="#132034" stroke="#00e5ff" stroke-opacity="0.3" stroke-width="1" />
      <text x="249" y="15.5" class="tag-text" fill="#7dd3fc" text-anchor="middle">Natural Language</text>

      <rect x="308" width="89" height="23" rx="6" fill="#132034" stroke="#00e5ff" stroke-opacity="0.3" stroke-width="1" />
      <text x="352.5" y="15.5" class="tag-text" fill="#7dd3fc" text-anchor="middle">Deep Learning</text>
    </g>
  </g>

  <!-- ==================== CARD 2: Large Language Models ==================== -->
  <g transform="translate(445, 10)">
    <rect width="425" height="155" rx="14" fill="url(#card-bg-2)" stroke="url(#border-2)" stroke-width="1.2" />

    <!-- Icon Box -->
    <rect x="14" y="14" width="30" height="30" rx="8" fill="url(#icon-grad-2)" stroke="#c084fc" stroke-opacity="0.4" stroke-width="1" />
    <!-- LLM / Sparks Icon -->
    <path d="M29 18l1.5 3.5L34 23l-3.5 1.5L29 28l-1.5-3.5L24 23l3.5-1.5L29 18zM21 27l.75 1.75L23.5 29.5l-1.75.75L21 32l-.75-1.75L18.5 29.5l1.75-.75L21 27z" stroke="#c084fc" stroke-width="1.4" stroke-linejoin="round" />

    <!-- Title -->
    <text x="54" y="34" class="card-title" fill="#ffffff">Large Language Models</text>
    <line x1="14" y1="52" x2="411" y2="52" stroke="#c084fc" stroke-opacity="0.15" stroke-width="1" />

    <!-- Tags Row 1 -->
    <g transform="translate(14, 62)">
      <rect width="108" height="23" rx="6" fill="#201538" stroke="#c084fc" stroke-opacity="0.3" stroke-width="1" />
      <text x="54" y="15.5" class="tag-text" fill="#d8b4fe" text-anchor="middle">Transformer Arch</text>

      <rect x="115" width="82" height="23" rx="6" fill="#201538" stroke="#c084fc" stroke-opacity="0.3" stroke-width="1" />
      <text x="156" y="15.5" class="tag-text" fill="#d8b4fe" text-anchor="middle">Pre-training</text>

      <rect x="204" width="46" height="23" rx="6" fill="#201538" stroke="#c084fc" stroke-opacity="0.3" stroke-width="1" />
      <text x="227" y="15.5" class="tag-text" fill="#d8b4fe" text-anchor="middle">SFT</text>

      <rect x="257" width="46" height="23" rx="6" fill="#201538" stroke="#c084fc" stroke-opacity="0.3" stroke-width="1" />
      <text x="280" y="15.5" class="tag-text" fill="#d8b4fe" text-anchor="middle">DPO</text>

      <rect x="310" width="54" height="23" rx="6" fill="#201538" stroke="#c084fc" stroke-opacity="0.3" stroke-width="1" />
      <text x="337" y="15.5" class="tag-text" fill="#d8b4fe" text-anchor="middle">RLHF</text>
    </g>

    <!-- Tags Row 2 -->
    <g transform="translate(14, 91)">
      <rect width="84" height="23" rx="6" fill="#201538" stroke="#c084fc" stroke-opacity="0.3" stroke-width="1" />
      <text x="42" y="15.5" class="tag-text" fill="#d8b4fe" text-anchor="middle">Tokenization</text>

      <rect x="91" width="48" height="23" rx="6" fill="#201538" stroke="#c084fc" stroke-opacity="0.3" stroke-width="1" />
      <text x="115" y="15.5" class="tag-text" fill="#d8b4fe" text-anchor="middle">MoE</text>

      <rect x="146" width="76" height="23" rx="6" fill="#201538" stroke="#c084fc" stroke-opacity="0.3" stroke-width="1" />
      <text x="184" y="15.5" class="tag-text" fill="#d8b4fe" text-anchor="middle">Distillation</text>

      <rect x="229" width="86" height="23" rx="6" fill="#201538" stroke="#c084fc" stroke-opacity="0.3" stroke-width="1" />
      <text x="272" y="15.5" class="tag-text" fill="#d8b4fe" text-anchor="middle">Quantization</text>

      <rect x="322" width="75" height="23" rx="6" fill="#201538" stroke="#c084fc" stroke-opacity="0.3" stroke-width="1" />
      <text x="359.5" y="15.5" class="tag-text" fill="#d8b4fe" text-anchor="middle">LoRA / PEFT</text>
    </g>

    <!-- Tags Row 3 -->
    <g transform="translate(14, 120)">
      <rect width="134" height="23" rx="6" fill="#201538" stroke="#c084fc" stroke-opacity="0.3" stroke-width="1" />
      <text x="67" y="15.5" class="tag-text" fill="#d8b4fe" text-anchor="middle">Long Context Models</text>

      <rect x="142" width="112" height="23" rx="6" fill="#201538" stroke="#c084fc" stroke-opacity="0.3" stroke-width="1" />
      <text x="198" y="15.5" class="tag-text" fill="#d8b4fe" text-anchor="middle">Reasoning &amp; CoT</text>

      <rect x="261" width="136" height="23" rx="6" fill="#201538" stroke="#c084fc" stroke-opacity="0.3" stroke-width="1" />
      <text x="329" y="15.5" class="tag-text" fill="#d8b4fe" text-anchor="middle">Instruction Tuning</text>
    </g>
  </g>

  <!-- ==================== CARD 3: Agentic AI & Autonomous Systems ==================== -->
  <g transform="translate(10, 175)">
    <rect width="425" height="155" rx="14" fill="url(#card-bg-3)" stroke="url(#border-3)" stroke-width="1.2" />

    <!-- Icon Box -->
    <rect x="14" y="14" width="30" height="30" rx="8" fill="url(#icon-grad-3)" stroke="#10b981" stroke-opacity="0.4" stroke-width="1" />
    <!-- Bot / Agent Network Icon -->
    <path d="M25 18a4 4 0 100-8 4 4 0 000 8zm8 14a4 4 0 100-8 4 4 0 000 8zM20 28a3 3 0 100-6 3 3 0 000 6zm5-10l5 6m-7-5l-2 2" stroke="#10b981" stroke-width="1.4" stroke-linecap="round" />

    <!-- Title -->
    <text x="54" y="34" class="card-title" fill="#ffffff">Agentic AI &amp; Autonomous Systems</text>
    <line x1="14" y1="52" x2="411" y2="52" stroke="#10b981" stroke-opacity="0.15" stroke-width="1" />

    <!-- Tags Row 1 -->
    <g transform="translate(14, 62)">
      <rect width="156" height="23" rx="6" fill="#112925" stroke="#10b981" stroke-opacity="0.3" stroke-width="1" />
      <text x="78" y="15.5" class="tag-text" fill="#6ee7b7" text-anchor="middle">Multi-Agent Orchestration</text>

      <rect x="163" width="138" height="23" rx="6" fill="#112925" stroke="#10b981" stroke-opacity="0.3" stroke-width="1" />
      <text x="232" y="15.5" class="tag-text" fill="#6ee7b7" text-anchor="middle">Planning &amp; Reasoning</text>

      <rect x="308" width="89" height="23" rx="6" fill="#112925" stroke="#10b981" stroke-opacity="0.3" stroke-width="1" />
      <text x="352.5" y="15.5" class="tag-text" fill="#6ee7b7" text-anchor="middle">Task Graphs</text>
    </g>

    <!-- Tags Row 2 -->
    <g transform="translate(14, 91)">
      <rect width="66" height="23" rx="6" fill="#112925" stroke="#10b981" stroke-opacity="0.3" stroke-width="1" />
      <text x="33" y="15.5" class="tag-text" fill="#6ee7b7" text-anchor="middle">Tool Use</text>

      <rect x="73" width="108" height="23" rx="6" fill="#112925" stroke="#10b981" stroke-opacity="0.3" stroke-width="1" />
      <text x="127" y="15.5" class="tag-text" fill="#6ee7b7" text-anchor="middle">Dynamic Memory</text>

      <rect x="188" width="128" height="23" rx="6" fill="#112925" stroke="#10b981" stroke-opacity="0.3" stroke-width="1" />
      <text x="252" y="15.5" class="tag-text" fill="#6ee7b7" text-anchor="middle">Agent Coordination</text>

      <rect x="323" width="74" height="23" rx="6" fill="#112925" stroke="#10b981" stroke-opacity="0.3" stroke-width="1" />
      <text x="360" y="15.5" class="tag-text" fill="#6ee7b7" text-anchor="middle">Reflection</text>
    </g>

    <!-- Tags Row 3 -->
    <g transform="translate(14, 120)">
      <rect width="118" height="23" rx="6" fill="#112925" stroke="#10b981" stroke-opacity="0.3" stroke-width="1" />
      <text x="59" y="15.5" class="tag-text" fill="#6ee7b7" text-anchor="middle">Verification Loops</text>

      <rect x="125" width="154" height="23" rx="6" fill="#112925" stroke="#10b981" stroke-opacity="0.3" stroke-width="1" />
      <text x="202" y="15.5" class="tag-text" fill="#6ee7b7" text-anchor="middle">Autonomous Code Gen</text>

      <rect x="286" width="111" height="23" rx="6" fill="#112925" stroke="#10b981" stroke-opacity="0.3" stroke-width="1" />
      <text x="341.5" y="15.5" class="tag-text" fill="#6ee7b7" text-anchor="middle">Self-Correction</text>
    </g>
  </g>

  <!-- ==================== CARD 4: AI Systems & Infrastructure ==================== -->
  <g transform="translate(445, 175)">
    <rect width="425" height="155" rx="14" fill="url(#card-bg-4)" stroke="url(#border-4)" stroke-width="1.2" />

    <!-- Icon Box -->
    <rect x="14" y="14" width="30" height="30" rx="8" fill="url(#icon-grad-4)" stroke="#fbbf24" stroke-opacity="0.4" stroke-width="1" />
    <!-- Chip / Hardware Icon -->
    <path d="M21 21h16v16H21zM26 17v4m6-4v4M26 37v4m6-4v4M17 26h4m-4 6h4M37 26h4m-4 6h4" stroke="#fbbf24" stroke-width="1.4" stroke-linecap="round" />

    <!-- Title -->
    <text x="54" y="34" class="card-title" fill="#ffffff">AI Systems &amp; Infrastructure</text>
    <line x1="14" y1="52" x2="411" y2="52" stroke="#fbbf24" stroke-opacity="0.15" stroke-width="1" />

    <!-- Tags Row 1 -->
    <g transform="translate(14, 62)">
      <rect width="128" height="23" rx="6" fill="#2b200d" stroke="#fbbf24" stroke-opacity="0.3" stroke-width="1" />
      <text x="64" y="15.5" class="tag-text" fill="#fde68a" text-anchor="middle">Distributed Training</text>

      <rect x="135" width="46" height="23" rx="6" fill="#2b200d" stroke="#fbbf24" stroke-opacity="0.3" stroke-width="1" />
      <text x="158" y="15.5" class="tag-text" fill="#fde68a" text-anchor="middle">FSDP</text>

      <rect x="188" width="76" height="23" rx="6" fill="#2b200d" stroke="#fbbf24" stroke-opacity="0.3" stroke-width="1" />
      <text x="226" y="15.5" class="tag-text" fill="#fde68a" text-anchor="middle">DeepSpeed</text>

      <rect x="271" width="126" height="23" rx="6" fill="#2b200d" stroke="#fbbf24" stroke-opacity="0.3" stroke-width="1" />
      <text x="334" y="15.5" class="tag-text" fill="#fde68a" text-anchor="middle">Model Parallelism</text>
    </g>

    <!-- Tags Row 2 -->
    <g transform="translate(14, 91)">
      <rect width="144" height="23" rx="6" fill="#2b200d" stroke="#fbbf24" stroke-opacity="0.3" stroke-width="1" />
      <text x="72" y="15.5" class="tag-text" fill="#fde68a" text-anchor="middle">GPU/CUDA Optimization</text>

      <rect x="151" width="102" height="23" rx="6" fill="#2b200d" stroke="#fbbf24" stroke-opacity="0.3" stroke-width="1" />
      <text x="202" y="15.5" class="tag-text" fill="#fde68a" text-anchor="middle">Model Serving</text>

      <rect x="260" width="137" height="23" rx="6" fill="#2b200d" stroke="#fbbf24" stroke-opacity="0.3" stroke-width="1" />
      <text x="328.5" y="15.5" class="tag-text" fill="#fde68a" text-anchor="middle">High-Perf Inference</text>
    </g>

    <!-- Tags Row 3 -->
    <g transform="translate(14, 120)">
      <rect width="146" height="23" rx="6" fill="#2b200d" stroke="#fbbf24" stroke-opacity="0.3" stroke-width="1" />
      <text x="73" y="15.5" class="tag-text" fill="#fde68a" text-anchor="middle">Scalable Data Pipelines</text>

      <rect x="153" width="138" height="23" rx="6" fill="#2b200d" stroke="#fbbf24" stroke-opacity="0.3" stroke-width="1" />
      <text x="222" y="15.5" class="tag-text" fill="#fde68a" text-anchor="middle">Throughput Tuning</text>

      <rect x="298" width="99" height="23" rx="6" fill="#2b200d" stroke="#fbbf24" stroke-opacity="0.3" stroke-width="1" />
      <text x="347.5" y="15.5" class="tag-text" fill="#fde68a" text-anchor="middle">Cluster Infra</text>
    </g>
  </g>

  <!-- ==================== CARD 5: AI Engineering & Evaluation ==================== -->
  <g transform="translate(10, 340)">
    <rect width="425" height="155" rx="14" fill="url(#card-bg-5)" stroke="url(#border-5)" stroke-width="1.2" />

    <!-- Icon Box -->
    <rect x="14" y="14" width="30" height="30" rx="8" fill="url(#icon-grad-5)" stroke="#fb7185" stroke-opacity="0.4" stroke-width="1" />
    <!-- Gauge / Benchmark Target Icon -->
    <path d="M29 20a9 9 0 100 18 9 9 0 000-18zm0 4a5 5 0 100 10 5 5 0 000-10zm0 3a2 2 0 100 4 2 2 0 000-4z" stroke="#fb7185" stroke-width="1.4" stroke-linecap="round" />

    <!-- Title -->
    <text x="54" y="34" class="card-title" fill="#ffffff">AI Engineering &amp; Evaluation</text>
    <line x1="14" y1="52" x2="411" y2="52" stroke="#fb7185" stroke-opacity="0.15" stroke-width="1" />

    <!-- Tags Row 1 -->
    <g transform="translate(14, 62)">
      <rect width="46" height="23" rx="6" fill="#2b1522" stroke="#fb7185" stroke-opacity="0.3" stroke-width="1" />
      <text x="23" y="15.5" class="tag-text" fill="#fca5a5" text-anchor="middle">RAG</text>

      <rect x="53" width="134" height="23" rx="6" fill="#2b1522" stroke="#fb7185" stroke-opacity="0.3" stroke-width="1" />
      <text x="120" y="15.5" class="tag-text" fill="#fca5a5" text-anchor="middle">Context Engineering</text>

      <rect x="194" width="76" height="23" rx="6" fill="#2b1522" stroke="#fb7185" stroke-opacity="0.3" stroke-width="1" />
      <text x="232" y="15.5" class="tag-text" fill="#fca5a5" text-anchor="middle">AI Memory</text>

      <rect x="277" width="120" height="23" rx="6" fill="#2b1522" stroke="#fb7185" stroke-opacity="0.3" stroke-width="1" />
      <text x="337" y="15.5" class="tag-text" fill="#fca5a5" text-anchor="middle">Model Evaluation</text>
    </g>

    <!-- Tags Row 2 -->
    <g transform="translate(14, 91)">
      <rect width="98" height="23" rx="6" fill="#2b1522" stroke="#fb7185" stroke-opacity="0.3" stroke-width="1" />
      <text x="49" y="15.5" class="tag-text" fill="#fca5a5" text-anchor="middle">Benchmarking</text>

      <rect x="105" width="98" height="23" rx="6" fill="#2b1522" stroke="#fb7185" stroke-opacity="0.3" stroke-width="1" />
      <text x="154" y="15.5" class="tag-text" fill="#fca5a5" text-anchor="middle">Observability</text>

      <rect x="210" width="78" height="23" rx="6" fill="#2b1522" stroke="#fb7185" stroke-opacity="0.3" stroke-width="1" />
      <text x="249" y="15.5" class="tag-text" fill="#fca5a5" text-anchor="middle">Reliability</text>

      <rect x="295" width="102" height="23" rx="6" fill="#2b1522" stroke="#fb7185" stroke-opacity="0.3" stroke-width="1" />
      <text x="346" y="15.5" class="tag-text" fill="#fca5a5" text-anchor="middle">Guardrails</text>
    </g>

    <!-- Tags Row 3 -->
    <g transform="translate(14, 120)">
      <rect width="98" height="23" rx="6" fill="#2b1522" stroke="#fb7185" stroke-opacity="0.3" stroke-width="1" />
      <text x="49" y="15.5" class="tag-text" fill="#fca5a5" text-anchor="middle">Red-Teaming</text>

      <rect x="105" width="104" height="23" rx="6" fill="#2b1522" stroke="#fb7185" stroke-opacity="0.3" stroke-width="1" />
      <text x="157" y="15.5" class="tag-text" fill="#fca5a5" text-anchor="middle">Production AI</text>

      <rect x="216" width="181" height="23" rx="6" fill="#2b1522" stroke="#fb7185" stroke-opacity="0.3" stroke-width="1" />
      <text x="306.5" y="15.5" class="tag-text" fill="#fca5a5" text-anchor="middle">Hallucination Mitigation</text>
    </g>
  </g>

  <!-- ==================== CARD 6: Cybersecurity × AI ==================== -->
  <g transform="translate(445, 340)">
    <rect width="425" height="155" rx="14" fill="url(#card-bg-6)" stroke="url(#border-6)" stroke-width="1.2" />

    <!-- Icon Box -->
    <rect x="14" y="14" width="30" height="30" rx="8" fill="url(#icon-grad-6)" stroke="#38bdf8" stroke-opacity="0.4" stroke-width="1" />
    <!-- Shield / Security Icon -->
    <path d="M29 18l-7 3.5v5.5c0 4.5 3 8.7 7 9.8 4-1.1 7-5.3 7-9.8v-5.5L29 18zm0 5v11.3c-2.7-.9-4.8-3.8-5-7.3h5V23z" stroke="#38bdf8" stroke-width="1.4" stroke-linejoin="round" />

    <!-- Title -->
    <text x="54" y="34" class="card-title" fill="#ffffff">Cybersecurity × AI</text>
    <line x1="14" y1="52" x2="411" y2="52" stroke="#38bdf8" stroke-opacity="0.15" stroke-width="1" />

    <!-- Tags Row 1 -->
    <g transform="translate(14, 62)">
      <rect width="112" height="23" rx="6" fill="#132338" stroke="#38bdf8" stroke-opacity="0.3" stroke-width="1" />
      <text x="56" y="15.5" class="tag-text" fill="#93c5fd" text-anchor="middle">Threat Modeling</text>

      <rect x="119" width="144" height="23" rx="6" fill="#132338" stroke="#38bdf8" stroke-opacity="0.3" stroke-width="1" />
      <text x="191" y="15.5" class="tag-text" fill="#93c5fd" text-anchor="middle">Vulnerability Discovery</text>

      <rect x="270" width="127" height="23" rx="6" fill="#132338" stroke="#38bdf8" stroke-opacity="0.3" stroke-width="1" />
      <text x="333.5" y="15.5" class="tag-text" fill="#93c5fd" text-anchor="middle">Secure Code Analysis</text>
    </g>

    <!-- Tags Row 2 -->
    <g transform="translate(14, 91)">
      <rect width="166" height="23" rx="6" fill="#132338" stroke="#38bdf8" stroke-opacity="0.3" stroke-width="1" />
      <text x="83" y="15.5" class="tag-text" fill="#93c5fd" text-anchor="middle">AI-Assisted Security Research</text>

      <rect x="173" width="176" height="23" rx="6" fill="#132338" stroke="#38bdf8" stroke-opacity="0.3" stroke-width="1" />
      <text x="261" y="15.5" class="tag-text" fill="#93c5fd" text-anchor="middle">Autonomous Security Agents</text>

      <rect x="356" width="41" height="23" rx="6" fill="#132338" stroke="#38bdf8" stroke-opacity="0.3" stroke-width="1" />
      <text x="376.5" y="15.5" class="tag-text" fill="#93c5fd" text-anchor="middle">Audit</text>
    </g>

    <!-- Tags Row 3 -->
    <g transform="translate(14, 120)">
      <rect width="144" height="23" rx="6" fill="#132338" stroke="#38bdf8" stroke-opacity="0.3" stroke-width="1" />
      <text x="72" y="15.5" class="tag-text" fill="#93c5fd" text-anchor="middle">Defensive Intelligence</text>

      <rect x="151" width="158" height="23" rx="6" fill="#132338" stroke="#38bdf8" stroke-opacity="0.3" stroke-width="1" />
      <text x="230" y="15.5" class="tag-text" fill="#93c5fd" text-anchor="middle">Prompt Injection Defense</text>

      <rect x="316" width="81" height="23" rx="6" fill="#132338" stroke="#38bdf8" stroke-opacity="0.3" stroke-width="1" />
      <text x="356.5" y="15.5" class="tag-text" fill="#93c5fd" text-anchor="middle">Red Teaming</text>
    </g>
  </g>
</svg>
